<svg id="Layer_1" data-name="Layer 1" xmlns="http://www.w3.org/2000/svg" viewBox="0 0 300 60"><defs><style>.cls-1{fill:#fff}</style></defs><path class="cls-1" d="M60.71 2.7v52.14h-9.18V28.7L31.28 57.37l-5.66-8.31-14.46-20.55v26.33H2V2.7l29.3 38.84zM70.17 55L95.38 2.94 120.59 55H95.38v-8h11l-11-23.14L80.48 55zM140.3 5.14V55h-9.18V5.14zm32.7 0a26.09 26.09 0 0 1 9.56 1.79 24.75 24.75 0 0 1 13.64 12.94A24 24 0 0 1 198.33 30a26 26 0 0 1-1.86 9.84 24.38 24.38 0 0 1-5.18 8 23.82 23.82 0 0 1-7.9 5.32A25.7 25.7 0 0 1 173.3 55h-16.54V30h9.18v16.51H173a16.25 16.25 0 0 0 3.85-.43 17.17 17.17 0 0 0 3.25-1.17L151.91 5.14zm-3.46 8.51L187.31 38a21.87 21.87 0 0 0 1.36-3.85 17.39 17.39 0 0 0 .48-4.19A16 16 0 0 0 188 24a17 17 0 0 0-3.27-5.22 16.45 16.45 0 0 0-5.09-3.73 15.14 15.14 0 0 0-6.64-1.4zm64.97 9.48a6.92 6.92 0 0 0-4.94 2 6.69 6.69 0 0 0-2.1 5 6.31 6.31 0 0 0 2.1 4.8 7 7 0 0 0 4.94 2 7.21 7.21 0 0 0 5-2 6.23 6.23 0 0 0 2.16-4.8 6.6 6.6 0 0 0-2.16-5 7.08 7.08 0 0 0-5-2z"/><path class="cls-1" d="M259.07 20a26.55 26.55 0 0 0-14.23-13.8 26.37 26.37 0 0 0-10.31-2 25.92 25.92 0 0 0-10.21 2 27.32 27.32 0 0 0-8.48 5.55A26.82 26.82 0 0 0 210 20a24.17 24.17 0 0 0-2.16 10.17 25.55 25.55 0 0 0 7.65 18.36 26.79 26.79 0 0 0 19 7.65 27 27 0 0 0 18.95-7.65 26 26 0 0 0 5.66-8.25 25.08 25.08 0 0 0 2.06-10.11A24.46 24.46 0 0 0 259.07 20zm-8.41 17a17.56 17.56 0 0 1-9.35 9.34 17.49 17.49 0 0 1-13.57 0A17.59 17.59 0 0 1 218.4 37a17.61 17.61 0 0 1 0-13.57 17.56 17.56 0 0 1 9.34-9.35 17.61 17.61 0 0 1 13.57 0 17.54 17.54 0 0 1 9.35 9.35 17.61 17.61 0 0 1 0 13.57zm47.89-23.35H288V55h-9.17V13.65h-10.47V5.14h30.19z"/></svg>